<svg width="48" height="43" viewBox="0 0 48 43" fill="none" xmlns="http://www.w3.org/2000/svg">
<path d="M4.53452 19.3794C4.53452 8.44797 13.3962 1.00009 24.3276 1.00009C35.2591 1.00009 44.1207 8.44797 44.1207 19.3794M4.53452 19.3794L9.4828 15.8449M4.53452 19.3794L1.00004 15.8449" stroke="#2F2F2F"/>
<path d="M43.4138 23.6206C43.4138 34.552 34.5522 41.9999 23.6207 41.9999C12.6893 41.9999 3.82763 34.552 3.82764 23.6206M43.4138 23.6206L38.4656 27.1551M43.4138 23.6206L46.9483 27.1551" stroke="#2F2F2F"/>
<path d="M15.5886 17.904C16.1806 17.648 17.4926 17.472 18.4366 17.472C20.1806 17.472 20.8846 17.872 20.8846 19.312C20.8846 21.088 20.5326 21.6 14.7246 26.128V27.424H22.5486V26.032H16.9006C21.8446 22.496 22.5966 21.424 22.5966 19.2C22.5966 16.784 21.2846 16 18.5486 16C17.3966 16 16.1806 16.208 15.2206 16.48L15.5886 17.904Z" fill="#2F2F2F"/>
<path d="M29.861 24.368V27.424H31.445V24.368H32.981V23.008H31.445V16.272H29.109C27.445 18.464 25.365 21.872 24.261 23.904V24.368H29.861ZM29.861 23.008H26.309C26.997 21.76 28.565 19.168 29.861 17.552V23.008Z" fill="#2F2F2F"/>
</svg>
