<svg width="21" height="22" viewBox="0 0 21 22" fill="none" xmlns="http://www.w3.org/2000/svg">
<path d="M16.5975 13.2589C16.1675 12.8112 15.649 12.5719 15.0994 12.5719C14.5542 12.5719 14.0312 12.8068 13.5836 13.2544L12.183 14.6506C12.0678 14.5885 11.9525 14.5309 11.8417 14.4733C11.6822 14.3935 11.5315 14.3182 11.4029 14.2384C10.091 13.4051 8.89874 12.3192 7.75523 10.9142C7.20121 10.2139 6.8289 9.62446 6.55854 9.02612C6.92198 8.6937 7.25883 8.34799 7.58681 8.01558C7.71091 7.89147 7.83501 7.76294 7.95911 7.63884C8.88987 6.70808 8.88987 5.50252 7.95911 4.57176L6.74912 3.36177C6.61173 3.22437 6.4699 3.08254 6.33693 2.94071C6.071 2.66592 5.79177 2.38225 5.50368 2.11632C5.07375 1.69083 4.55962 1.46479 4.01889 1.46479C3.47817 1.46479 2.95517 1.69083 2.51195 2.11632C2.50751 2.12076 2.50751 2.12076 2.50308 2.12519L0.996137 3.64543C0.428816 4.21275 0.105266 4.90417 0.0343511 5.7064C-0.0720215 7.0006 0.309147 8.20616 0.601672 8.99509C1.31969 10.932 2.39228 12.727 3.9923 14.6506C5.9336 16.9686 8.26937 18.7991 10.9375 20.0889C11.957 20.572 13.3176 21.1437 14.8379 21.2412C14.931 21.2457 15.0285 21.2501 15.1171 21.2501C16.1409 21.2501 17.0008 20.8822 17.6745 20.1509C17.6789 20.1421 17.6878 20.1376 17.6922 20.1288C17.9227 19.8495 18.1886 19.5969 18.4678 19.3265C18.6584 19.1448 18.8534 18.9542 19.044 18.7548C19.4828 18.2983 19.7133 17.7664 19.7133 17.2212C19.7133 16.6717 19.4784 16.1442 19.0307 15.701L16.5975 13.2589ZM18.1842 17.926C18.1798 17.9304 18.1798 17.926 18.1842 17.926C18.0113 18.1121 17.834 18.2805 17.6435 18.4667C17.3554 18.7415 17.0628 19.0296 16.788 19.3531C16.3404 19.8318 15.813 20.0579 15.1215 20.0579C15.0551 20.0579 14.9841 20.0579 14.9177 20.0534C13.6013 19.9692 12.378 19.4551 11.4605 19.0163C8.95192 17.8019 6.74912 16.0777 4.91863 13.8927C3.40725 12.071 2.39671 10.3868 1.72745 8.57846C1.31526 7.47485 1.16456 6.615 1.23104 5.80391C1.27537 5.28534 1.47481 4.85542 1.84269 4.48755L3.35406 2.97617C3.57124 2.77229 3.80172 2.66148 4.02776 2.66148C4.30699 2.66148 4.53303 2.82991 4.67486 2.97174C4.67929 2.97617 4.68372 2.9806 4.68815 2.98503C4.95852 3.23767 5.21558 3.49917 5.48595 3.7784C5.62335 3.92023 5.76518 4.06206 5.90701 4.20832L7.117 5.41831C7.58681 5.88812 7.58681 6.32248 7.117 6.79229C6.98846 6.92082 6.86436 7.04936 6.73583 7.17346C6.36352 7.55463 6.00895 7.9092 5.62335 8.25491C5.61448 8.26378 5.60562 8.26821 5.60119 8.27708C5.22002 8.65825 5.29093 9.03055 5.37071 9.28318C5.37514 9.29648 5.37958 9.30978 5.38401 9.32307C5.69869 10.0854 6.14191 10.8034 6.81561 11.6588L6.82004 11.6633C8.04332 13.1702 9.33309 14.3448 10.7558 15.2445C10.9375 15.3597 11.1237 15.4528 11.301 15.5414C11.4605 15.6212 11.6112 15.6966 11.7398 15.7764C11.7575 15.7852 11.7752 15.7985 11.793 15.8074C11.9437 15.8827 12.0855 15.9182 12.2317 15.9182C12.5996 15.9182 12.8301 15.6877 12.9054 15.6124L14.4212 14.0965C14.5719 13.9459 14.8113 13.7641 15.0905 13.7641C15.3653 13.7641 15.5913 13.937 15.7287 14.0877C15.7332 14.0921 15.7332 14.0921 15.7376 14.0965L18.1798 16.5387C18.6363 16.9908 18.6363 17.4562 18.1842 17.926Z" fill="white"/>
<path d="M11.3496 5.24495C12.5108 5.43996 13.5657 5.98955 14.4078 6.83167C15.2499 7.67379 15.795 8.72865 15.9945 9.88988C16.0432 10.1824 16.2959 10.3863 16.584 10.3863C16.6194 10.3863 16.6505 10.3819 16.6859 10.3774C17.0139 10.3242 17.2311 10.014 17.1779 9.686C16.9386 8.281 16.2737 7.00009 15.2588 5.98512C14.2438 4.97015 12.9629 4.30532 11.5579 4.06598C11.2299 4.0128 10.9241 4.22997 10.8664 4.55352C10.8088 4.87707 11.0216 5.19176 11.3496 5.24495Z" fill="white"/>
<path d="M20.9766 9.51379C20.5821 7.20018 19.4918 5.09489 17.8164 3.41952C16.1411 1.74415 14.0358 0.653831 11.7222 0.259366C11.3986 0.201748 11.0928 0.423357 11.0352 0.746908C10.982 1.07489 11.1992 1.38071 11.5271 1.43833C13.5925 1.78847 15.4762 2.76799 16.9743 4.26164C18.4724 5.75972 19.4475 7.6434 19.7976 9.7088C19.8464 10.0013 20.099 10.2052 20.3871 10.2052C20.4226 10.2052 20.4536 10.2008 20.489 10.1963C20.8126 10.1476 21.0342 9.83734 20.9766 9.51379Z" fill="white"/>
</svg>
