<svg width="23" height="22" viewBox="0 0 23 22" fill="none" xmlns="http://www.w3.org/2000/svg">
<g clip-path="url(#clip0)">
<path fill-rule="evenodd" clip-rule="evenodd" d="M0.89453 1.07422H21.6054C21.9614 1.07422 22.25 1.3628 22.25 1.71875C22.25 2.0747 21.9614 2.36328 21.6055 2.36328H20.0586V20.2813C20.0586 20.4972 19.9505 20.6987 19.7706 20.8182C19.5908 20.9376 19.3629 20.959 19.1639 20.8753L15.3322 19.2618L11.5004 20.8753C11.3404 20.9426 11.16 20.9426 11.0002 20.8753L7.16808 19.2618L3.33601 20.8753C3.13741 20.9589 2.90955 20.9378 2.72942 20.8181C2.54955 20.6987 2.4414 20.4971 2.4414 20.2812V2.36328H0.89453C0.538578 2.36328 0.25 2.0747 0.25 1.71875C0.25 1.3628 0.538578 1.07422 0.89453 1.07422ZM15.5823 17.9684L18.7695 19.3105V2.36328H3.73046V19.3105L6.91792 17.9684C7.07781 17.9011 7.25823 17.9011 7.41812 17.9684L11.2502 19.5819L15.082 17.9684C15.242 17.9011 15.4223 17.9011 15.5823 17.9684ZM8.02734 5H14.4726C14.8286 5 15.1172 5.28858 15.1172 5.64453C15.1172 6.00048 14.8286 6.28906 14.4726 6.28906H8.02734C7.67139 6.28906 7.38281 6.00048 7.38281 5.64453C7.38281 5.28858 7.67139 5 8.02734 5ZM15.9766 9.66797H9.96094C9.60498 9.66797 9.31641 9.95655 9.31641 10.3125C9.31641 10.6685 9.60498 10.957 9.96094 10.957H15.9766C16.3325 10.957 16.6211 10.6685 16.6211 10.3125C16.6211 9.95655 16.3325 9.66797 15.9766 9.66797ZM7.46875 10.3125C7.46875 10.7871 7.08399 11.1719 6.60937 11.1719C6.13475 11.1719 5.75 10.7871 5.75 10.3125C5.75 9.83788 6.13475 9.45312 6.60937 9.45312C7.08399 9.45312 7.46875 9.83788 7.46875 10.3125ZM15.9766 13.1055H9.96094C9.60498 13.1055 9.31641 13.394 9.31641 13.75C9.31641 14.106 9.60498 14.3945 9.96094 14.3945H15.9766C16.3325 14.3945 16.6211 14.106 16.6211 13.75C16.6211 13.394 16.3325 13.1055 15.9766 13.1055ZM7.46875 13.75C7.46875 14.2246 7.08399 14.6094 6.60937 14.6094C6.13475 14.6094 5.75 14.2246 5.75 13.75C5.75 13.2754 6.13475 12.8906 6.60937 12.8906C7.08399 12.8906 7.46875 13.2754 7.46875 13.75Z" fill="#d59f3d"/>
</g>
<defs>
<clipPath id="clip0">
<rect width="22" height="22" fill="white" transform="translate(0.25)"/>
</clipPath>
</defs>
</svg>
